<svg xmlns="http://www.w3.org/2000/svg" width="1016.0" height="453.0" viewBox="0 0 1016.0 453.0">
  <g transform="translate(64.0,86.5)">
  <rect x="393.0" y="-22.5" width="102.0" height="45.0" fill="white" stroke="black" stroke-width="1.5"/>
  <text x="444.0" y="0.0" text-anchor="middle" dominant-baseline="middle" font-size="14px" fill="black" font-family="Arial, sans-serif">Evaluation</text>
  <rect x="516.0" y="117.5" width="207.0" height="45.0" fill="white" stroke="black" stroke-width="1.5"/>
  <text x="619.5" y="140.0" text-anchor="middle" dominant-baseline="middle" font-size="14px" fill="black" font-family="Arial, sans-serif">Validation (policy-gated)</text>
  <rect x="351.0" y="257.5" width="249.0" height="45.0" fill="white" stroke="black" stroke-width="1.5"/>
  <text x="475.5" y="280.0" text-anchor="middle" dominant-baseline="middle" font-size="14px" fill="black" font-family="Arial, sans-serif">Decision engine (accept/reject)</text>
  <rect x="660.0" y="257.5" width="228.0" height="45.0" fill="white" stroke="black" stroke-width="1.5"/>
  <text x="774.0" y="280.0" text-anchor="middle" dominant-baseline="middle" font-size="14px" fill="black" font-family="Arial, sans-serif">Validation policy (artifact)</text>
  <rect x="0.0" y="117.5" width="291.0" height="45.0" fill="white" stroke="black" stroke-width="1.5" stroke-dasharray="6 4"/>
  <text x="145.5" y="140.0" text-anchor="middle" dominant-baseline="middle" font-size="14px" fill="black" font-family="Arial, sans-serif">Adequacy evaluation &amp; quality metrics</text>
  <line x1="145.5" y1="70.0" x2="619.5" y2="70.0" stroke="black" stroke-width="1.4"/>
  <line x1="444.0" y1="22.5" x2="444.0" y2="70.0" stroke="black" stroke-width="1.4"/>
  <line x1="145.5" y1="70.0" x2="145.5" y2="109.5" stroke="black" stroke-width="1.4"/>
  <line x1="145.5" y1="109.5" x2="145.5" y2="117.5" stroke="black" stroke-width="1.4"/>
  <circle cx="145.5" cy="109.5" r="6.0" stroke="black" stroke-width="1.4" fill="black"/>
  <line x1="619.5" y1="70.0" x2="619.5" y2="109.5" stroke="black" stroke-width="1.4"/>
  <line x1="619.5" y1="109.5" x2="619.5" y2="117.5" stroke="black" stroke-width="1.4"/>
  <circle cx="619.5" cy="109.5" r="6.0" stroke="black" stroke-width="1.4" fill="white"/>
  <line x1="475.5" y1="210.0" x2="774.0" y2="210.0" stroke="black" stroke-width="1.4"/>
  <line x1="619.5" y1="162.5" x2="619.5" y2="210.0" stroke="black" stroke-width="1.4"/>
  <line x1="475.5" y1="210.0" x2="475.5" y2="249.5" stroke="black" stroke-width="1.4"/>
  <line x1="475.5" y1="249.5" x2="475.5" y2="257.5" stroke="black" stroke-width="1.4"/>
  <circle cx="475.5" cy="249.5" r="6.0" stroke="black" stroke-width="1.4" fill="black"/>
  <line x1="774.0" y1="210.0" x2="774.0" y2="249.5" stroke="black" stroke-width="1.4"/>
  <line x1="774.0" y1="249.5" x2="774.0" y2="257.5" stroke="black" stroke-width="1.4"/>
  <circle cx="774.0" cy="249.5" r="6.0" stroke="black" stroke-width="1.4" fill="black"/>
  <line x1="351.0" y1="280.0" x2="291.0" y2="140.0" stroke="#444444" stroke-width="2" stroke-dasharray="5 4" stroke-dashoffset="0" stroke-linecap="round"/>
  <polygon points="291.0,140.0 298.2,147.0 291.1,150.0" fill="#444444" stroke="#444444" stroke-width="1.2"/>
  <line x1="600.0" y1="280.0" x2="660.0" y2="280.0" stroke="#444444" stroke-width="2" stroke-dasharray="5 4" stroke-dashoffset="2" stroke-linecap="round"/>
  <polygon points="660.0,280.0 650.8,283.8 650.8,276.2" fill="#444444" stroke="#444444" stroke-width="1.2"/>
  </g>
</svg>
