<svg xmlns="http://www.w3.org/2000/svg" width="1391.0" height="265.0" viewBox="0 0 1391.0 265.0">
  <g transform="translate(40.0,62.5)">
  <rect x="171.0" y="-22.5" width="90.0" height="45.0" fill="white" stroke="black" stroke-width="1.5"/>
  <text x="216.0" y="0.0" text-anchor="middle" dominant-baseline="middle" font-size="14px" fill="black" font-family="Arial, sans-serif">Test API</text>
  <rect x="0.0" y="117.5" width="151.0" height="45.0" fill="white" stroke="black" stroke-width="1.5"/>
  <text x="75.5" y="140.0" text-anchor="middle" dominant-baseline="middle" font-size="14px" fill="black" font-family="Arial, sans-serif">Sequence launcher</text>
  <rect x="211.0" y="117.5" width="221.0" height="45.0" fill="white" stroke="black" stroke-width="1.5"/>
  <text x="321.5" y="140.0" text-anchor="middle" dominant-baseline="middle" font-size="14px" fill="black" font-family="Arial, sans-serif">Parallel testable interface</text>
  <rect x="601.0" y="-22.5" width="165.0" height="45.0" fill="white" stroke="black" stroke-width="1.5"/>
  <text x="683.5" y="0.0" text-anchor="middle" dominant-baseline="middle" font-size="14px" fill="black" font-family="Arial, sans-serif">Test Code placement</text>
  <rect x="492.0" y="117.5" width="158.0" height="45.0" fill="white" stroke="black" stroke-width="1.5"/>
  <text x="571.0" y="140.0" text-anchor="middle" dominant-baseline="middle" font-size="14px" fill="black" font-family="Arial, sans-serif">Embedded test code</text>
  <rect x="710.0" y="117.5" width="165.0" height="45.0" fill="white" stroke="black" stroke-width="1.5"/>
  <text x="792.5" y="140.0" text-anchor="middle" dominant-baseline="middle" font-size="14px" fill="black" font-family="Arial, sans-serif">Decoupled test code</text>
  <rect x="1019.5" y="-22.5" width="207.0" height="45.0" fill="white" stroke="black" stroke-width="1.5"/>
  <text x="1123.0" y="0.0" text-anchor="middle" dominant-baseline="middle" font-size="14px" fill="black" font-family="Arial, sans-serif">Result checking mechanism</text>
  <rect x="935.0" y="117.5" width="151.0" height="45.0" fill="white" stroke="black" stroke-width="1.5"/>
  <text x="1010.5" y="140.0" text-anchor="middle" dominant-baseline="middle" font-size="14px" fill="black" font-family="Arial, sans-serif">Spec-level checks</text>
  <rect x="1146.0" y="117.5" width="165.0" height="45.0" fill="white" stroke="black" stroke-width="1.5"/>
  <text x="1228.5" y="140.0" text-anchor="middle" dominant-baseline="middle" font-size="14px" fill="black" font-family="Arial, sans-serif">Test-defined checks</text>
  <line x1="216.0" y1="22.5" x2="75.5" y2="117.5" stroke="black" stroke-width="1.4"/>
  <line x1="216.0" y1="22.5" x2="321.5" y2="117.5" stroke="black" stroke-width="1.4"/>
  <polygon points="216.0,22.5 180.9,46.2 242.4,46.2" fill="white" stroke="black" stroke-width="1.4"/>
  <line x1="683.5" y1="22.5" x2="571.0" y2="117.5" stroke="black" stroke-width="1.4"/>
  <line x1="683.5" y1="22.5" x2="792.5" y2="117.5" stroke="black" stroke-width="1.4"/>
  <polygon points="683.5,22.5 655.4,46.2 710.8,46.2" fill="white" stroke="black" stroke-width="1.4"/>
  <line x1="1123.0" y1="22.5" x2="1010.5" y2="117.5" stroke="black" stroke-width="1.4"/>
  <line x1="1123.0" y1="22.5" x2="1228.5" y2="117.5" stroke="black" stroke-width="1.4"/>
  <polygon points="1123.0,22.5 1094.9,46.2 1149.4,46.2" fill="black" stroke="black" stroke-width="1.4"/>
  </g>
</svg>
