<svg xmlns="http://www.w3.org/2000/svg" width="2879.0" height="647.0" viewBox="0 0 2879.0 647.0">
  <g transform="translate(64.0,86.5)">
  <rect x="1029.5" y="-22.5" width="130.0" height="45.0" fill="white" stroke="black" stroke-width="1.5"/>
  <text x="1094.5" y="0.0" text-anchor="middle" dominant-baseline="middle" font-size="14px" fill="black" font-family="Arial, sans-serif">Test execution</text>
  <rect x="2249.0" y="-22.5" width="270.0" height="45.0" fill="white" stroke="black" stroke-width="1.5" stroke-dasharray="6 4"/>
  <text x="2384.0" y="0.0" text-anchor="middle" dominant-baseline="middle" font-size="14px" fill="black" font-family="Arial, sans-serif">Operational modes: normal vs. test</text>
  <rect x="439.0" y="117.5" width="221.0" height="45.0" fill="white" stroke="black" stroke-width="1.5"/>
  <text x="549.5" y="140.0" text-anchor="middle" dominant-baseline="middle" font-size="14px" fill="black" font-family="Arial, sans-serif">Test generation &amp; evolution</text>
  <rect x="0.0" y="257.5" width="207.0" height="45.0" fill="white" stroke="black" stroke-width="1.5"/>
  <text x="103.5" y="280.0" text-anchor="middle" dominant-baseline="middle" font-size="14px" fill="black" font-family="Arial, sans-serif">System model availability</text>
  <rect x="414.5" y="257.5" width="249.0" height="45.0" fill="white" stroke="black" stroke-width="1.5"/>
  <text x="539.0" y="280.0" text-anchor="middle" dominant-baseline="middle" font-size="14px" fill="black" font-family="Arial, sans-serif">Design-time generation strategy</text>
  <rect x="871.0" y="257.5" width="228.0" height="45.0" fill="white" stroke="black" stroke-width="1.5"/>
  <text x="985.0" y="280.0" text-anchor="middle" dominant-baseline="middle" font-size="14px" fill="black" font-family="Arial, sans-serif">Dynamic generation (runtime)</text>
  <rect x="267.0" y="397.5" width="263.0" height="45.0" fill="white" stroke="black" stroke-width="1.5"/>
  <text x="398.5" y="420.0" text-anchor="middle" dominant-baseline="middle" font-size="14px" fill="black" font-family="Arial, sans-serif">Deterministic rules (design time)</text>
  <rect x="590.0" y="397.5" width="221.0" height="45.0" fill="white" stroke="black" stroke-width="1.5"/>
  <text x="700.5" y="420.0" text-anchor="middle" dominant-baseline="middle" font-size="14px" fill="black" font-family="Arial, sans-serif">Model-based test derivation</text>
  <rect x="1159.0" y="117.5" width="242.0" height="45.0" fill="white" stroke="black" stroke-width="1.5"/>
  <text x="1280.0" y="140.0" text-anchor="middle" dominant-baseline="middle" font-size="14px" fill="black" font-family="Arial, sans-serif">Selection &amp; Execution controls</text>
  <rect x="1718.0" y="117.5" width="214.0" height="45.0" fill="white" stroke="black" stroke-width="1.5"/>
  <text x="1825.0" y="140.0" text-anchor="middle" dominant-baseline="middle" font-size="14px" fill="black" font-family="Arial, sans-serif">Runtime Isolation strategy</text>
  <rect x="1461.0" y="257.5" width="137.0" height="45.0" fill="white" stroke="black" stroke-width="1.5"/>
  <text x="1529.5" y="280.0" text-anchor="middle" dominant-baseline="middle" font-size="14px" fill="black" font-family="Arial, sans-serif">Proceed-if-safe</text>
  <rect x="1658.0" y="257.5" width="130.0" height="45.0" fill="white" stroke="black" stroke-width="1.5"/>
  <text x="1723.0" y="280.0" text-anchor="middle" dominant-baseline="middle" font-size="14px" fill="black" font-family="Arial, sans-serif">Block-and-test</text>
  <rect x="1848.0" y="257.5" width="151.0" height="45.0" fill="white" stroke="black" stroke-width="1.5"/>
  <text x="1923.5" y="280.0" text-anchor="middle" dominant-baseline="middle" font-size="14px" fill="black" font-family="Arial, sans-serif">Abort-and-restore</text>
  <rect x="2059.0" y="257.5" width="130.0" height="45.0" fill="white" stroke="black" stroke-width="1.5"/>
  <text x="2124.0" y="280.0" text-anchor="middle" dominant-baseline="middle" font-size="14px" fill="black" font-family="Arial, sans-serif">Clone-and-test</text>
  <rect x="2579.0" y="-22.5" width="172.0" height="45.0" fill="white" stroke="black" stroke-width="1.5" stroke-dasharray="6 4"/>
  <text x="2665.0" y="0.0" text-anchor="middle" dominant-baseline="middle" font-size="14px" fill="black" font-family="Arial, sans-serif">Model-level coverage</text>
  <line x1="549.5" y1="70.0" x2="1825.0" y2="70.0" stroke="black" stroke-width="1.4"/>
  <line x1="1094.5" y1="22.5" x2="1094.5" y2="70.0" stroke="black" stroke-width="1.4"/>
  <line x1="549.5" y1="70.0" x2="549.5" y2="109.5" stroke="black" stroke-width="1.4"/>
  <line x1="549.5" y1="109.5" x2="549.5" y2="117.5" stroke="black" stroke-width="1.4"/>
  <circle cx="549.5" cy="109.5" r="6.0" stroke="black" stroke-width="1.4" fill="black"/>
  <line x1="1280.0" y1="70.0" x2="1280.0" y2="109.5" stroke="black" stroke-width="1.4"/>
  <line x1="1280.0" y1="109.5" x2="1280.0" y2="117.5" stroke="black" stroke-width="1.4"/>
  <circle cx="1280.0" cy="109.5" r="6.0" stroke="black" stroke-width="1.4" fill="white"/>
  <line x1="1825.0" y1="70.0" x2="1825.0" y2="109.5" stroke="black" stroke-width="1.4"/>
  <line x1="1825.0" y1="109.5" x2="1825.0" y2="117.5" stroke="black" stroke-width="1.4"/>
  <circle cx="1825.0" cy="109.5" r="6.0" stroke="black" stroke-width="1.4" fill="black"/>
  <line x1="549.5" y1="162.5" x2="103.5" y2="249.5" stroke="black" stroke-width="1.4"/>
  <line x1="103.5" y1="249.5" x2="103.5" y2="257.5" stroke="black" stroke-width="1.4"/>
  <circle cx="103.5" cy="249.5" r="6.0" stroke="black" stroke-width="1.4" fill="white"/>
  <line x1="549.5" y1="162.5" x2="539.0" y2="257.5" stroke="black" stroke-width="1.4"/>
  <line x1="549.5" y1="162.5" x2="985.0" y2="257.5" stroke="black" stroke-width="1.4"/>
  <polygon points="549.5,162.5 546.9,186.2 658.4,186.2" fill="black" stroke="black" stroke-width="1.4"/>
  <line x1="539.0" y1="302.5" x2="398.5" y2="397.5" stroke="black" stroke-width="1.4"/>
  <line x1="539.0" y1="302.5" x2="700.5" y2="397.5" stroke="black" stroke-width="1.4"/>
  <polygon points="539.0,302.5 503.9,326.2 579.4,326.2" fill="black" stroke="black" stroke-width="1.4"/>
  <line x1="1825.0" y1="162.5" x2="1529.5" y2="257.5" stroke="black" stroke-width="1.4"/>
  <line x1="1825.0" y1="162.5" x2="1723.0" y2="257.5" stroke="black" stroke-width="1.4"/>
  <line x1="1825.0" y1="162.5" x2="1923.5" y2="257.5" stroke="black" stroke-width="1.4"/>
  <line x1="1825.0" y1="162.5" x2="2124.0" y2="257.5" stroke="black" stroke-width="1.4"/>
  <polygon points="1825.0,162.5 1751.1,186.2 1899.8,186.2" fill="white" stroke="black" stroke-width="1.4"/>
  <line x1="700.5" y1="442.5" x2="700.5" y2="472.5" stroke="#444444" stroke-width="2" stroke-dasharray="5 4" stroke-dashoffset="0" stroke-linecap="round"/>
  <line x1="700.5" y1="472.5" x2="103.5" y2="472.5" stroke="#444444" stroke-width="2" stroke-dasharray="5 4" stroke-dashoffset="0" stroke-linecap="round"/>
  <line x1="103.5" y1="472.5" x2="103.5" y2="302.5" stroke="#444444" stroke-width="2" stroke-dasharray="5 4" stroke-dashoffset="0" stroke-linecap="round"/>
  <polygon points="103.5,302.5 107.3,311.7 99.7,311.7" fill="#444444" stroke="#444444" stroke-width="1.2"/>
  <line x1="1529.5" y1="302.5" x2="1529.5" y2="496.5" stroke="#444444" stroke-width="2" stroke-dasharray="5 4" stroke-dashoffset="2" stroke-linecap="round"/>
  <line x1="1529.5" y1="496.5" x2="2384.0" y2="496.5" stroke="#444444" stroke-width="2" stroke-dasharray="5 4" stroke-dashoffset="2" stroke-linecap="round"/>
  <line x1="2384.0" y1="496.5" x2="2384.0" y2="22.5" stroke="#444444" stroke-width="2" stroke-dasharray="5 4" stroke-dashoffset="2" stroke-linecap="round"/>
  <polygon points="2384.0,22.5 2387.8,31.7 2380.2,31.7" fill="#444444" stroke="#444444" stroke-width="1.2"/>
  <line x1="1788.0" y1="280.0" x2="2249.0" y2="0.0" stroke="#444444" stroke-width="2" stroke-dasharray="5 4" stroke-dashoffset="4" stroke-linecap="round"/>
  <polygon points="2249.0,0.0 2243.1,8.1 2239.1,1.5" fill="#444444" stroke="#444444" stroke-width="1.2"/>
  <line x1="1999.0" y1="280.0" x2="2249.0" y2="0.0" stroke="#444444" stroke-width="2" stroke-dasharray="5 4" stroke-dashoffset="6" stroke-linecap="round"/>
  <polygon points="2249.0,0.0 2245.7,9.4 2240.0,4.3" fill="#444444" stroke="#444444" stroke-width="1.2"/>
  <line x1="2665.0" y1="22.5" x2="2665.0" y2="520.5" stroke="#444444" stroke-width="2" stroke-dasharray="5 4" stroke-dashoffset="8" stroke-linecap="round"/>
  <line x1="2665.0" y1="520.5" x2="103.5" y2="520.5" stroke="#444444" stroke-width="2" stroke-dasharray="5 4" stroke-dashoffset="8" stroke-linecap="round"/>
  <line x1="103.5" y1="520.5" x2="103.5" y2="302.5" stroke="#444444" stroke-width="2" stroke-dasharray="5 4" stroke-dashoffset="8" stroke-linecap="round"/>
  <polygon points="103.5,302.5 107.3,311.7 99.7,311.7" fill="#444444" stroke="#444444" stroke-width="1.2"/>
  </g>
</svg>
